<mxfile host="app.diagrams.net" modified="2021-05-11T10:14:35.185Z" agent="5.0 (Windows NT 10.0; Win64; x64) AppleWebKit/537.36 (KHTML, like Gecko) Chrome/90.0.4430.93 Safari/537.36 Edg/90.0.818.56" etag="mzCPS7TR3btVAM7PcF5q" version="14.6.11" type="github">
  <diagram id="aw4TtTJ2CJ5YBK6EC5cA" name="第 1 页">
    <mxGraphModel dx="1389" dy="840" grid="0" gridSize="10" guides="1" tooltips="1" connect="1" arrows="1" fold="1" page="1" pageScale="1" pageWidth="1169" pageHeight="827" background="#000000" math="0" shadow="0">
      <root>
        <mxCell id="0" />
        <mxCell id="1" parent="0" />
        <mxCell id="WMnvuN_LtXJiwmp-fKAC-5" value="" style="shape=cube;whiteSpace=wrap;html=1;boundedLbl=1;backgroundOutline=1;darkOpacity=0.05;darkOpacity2=0.1;size=93;flipH=1;fillColor=none;strokeColor=#FFFFFF;" parent="1" vertex="1">
          <mxGeometry x="265" y="249.5" width="120" height="235" as="geometry" />
        </mxCell>
        <mxCell id="WMnvuN_LtXJiwmp-fKAC-67" value="" style="shape=cube;whiteSpace=wrap;html=1;boundedLbl=1;backgroundOutline=1;darkOpacity=0.05;darkOpacity2=0.1;size=93;flipH=1;fillColor=#a20025;opacity=50;fontColor=#ffffff;strokeColor=#FFFFFF;" parent="1" vertex="1">
          <mxGeometry x="292" y="249.5" width="105" height="235" as="geometry" />
        </mxCell>
        <mxCell id="WMnvuN_LtXJiwmp-fKAC-4" value="" style="shape=cube;whiteSpace=wrap;html=1;boundedLbl=1;backgroundOutline=1;darkOpacity=0.05;darkOpacity2=0.1;size=106;flipH=1;fillColor=none;strokeColor=#FFFFFF;" parent="1" vertex="1">
          <mxGeometry x="74" y="207" width="120" height="320" as="geometry" />
        </mxCell>
        <mxCell id="WMnvuN_LtXJiwmp-fKAC-7" value="" style="edgeStyle=orthogonalEdgeStyle;rounded=0;orthogonalLoop=1;jettySize=auto;html=1;" parent="1" source="WMnvuN_LtXJiwmp-fKAC-5" target="WMnvuN_LtXJiwmp-fKAC-6" edge="1">
          <mxGeometry relative="1" as="geometry" />
        </mxCell>
        <mxCell id="WMnvuN_LtXJiwmp-fKAC-6" value="" style="shape=cube;whiteSpace=wrap;html=1;boundedLbl=1;backgroundOutline=1;darkOpacity=0.05;darkOpacity2=0.1;size=67;flipH=1;fillColor=none;strokeColor=#FFFFFF;" parent="1" vertex="1">
          <mxGeometry x="441" y="280.5" width="120" height="173" as="geometry" />
        </mxCell>
        <mxCell id="WMnvuN_LtXJiwmp-fKAC-8" value="" style="shape=cube;whiteSpace=wrap;html=1;boundedLbl=1;backgroundOutline=1;darkOpacity=0.05;darkOpacity2=0.1;size=40;flipH=1;fillColor=none;strokeColor=#FFFFFF;" parent="1" vertex="1">
          <mxGeometry x="649" y="309" width="120" height="120" as="geometry" />
        </mxCell>
        <mxCell id="WMnvuN_LtXJiwmp-fKAC-28" value="" style="edgeStyle=orthogonalEdgeStyle;rounded=0;orthogonalLoop=1;jettySize=auto;html=1;" parent="1" target="WMnvuN_LtXJiwmp-fKAC-27" edge="1">
          <mxGeometry relative="1" as="geometry">
            <mxPoint x="927.4705882352941" y="336.75" as="sourcePoint" />
          </mxGeometry>
        </mxCell>
        <mxCell id="WMnvuN_LtXJiwmp-fKAC-9" value="" style="shape=cube;whiteSpace=wrap;html=1;boundedLbl=1;backgroundOutline=1;darkOpacity=0.05;darkOpacity2=0.1;size=14;flipH=1;fillColor=none;strokeColor=#FFFFFF;" parent="1" vertex="1">
          <mxGeometry x="857" y="336.75" width="131" height="62.5" as="geometry" />
        </mxCell>
        <mxCell id="WMnvuN_LtXJiwmp-fKAC-31" style="edgeStyle=orthogonalEdgeStyle;rounded=0;orthogonalLoop=1;jettySize=auto;html=1;exitX=0.5;exitY=1;exitDx=0;exitDy=0;" parent="1" edge="1">
          <mxGeometry relative="1" as="geometry">
            <mxPoint x="1120.571428571429" y="384" as="targetPoint" />
            <mxPoint x="1087" y="384.5" as="sourcePoint" />
          </mxGeometry>
        </mxCell>
        <mxCell id="WMnvuN_LtXJiwmp-fKAC-15" value="&lt;font color=&quot;#ffffff&quot; style=&quot;font-size: 24px&quot;&gt;64&lt;/font&gt;" style="text;html=1;align=center;verticalAlign=middle;resizable=0;points=[];autosize=1;" parent="1" vertex="1">
          <mxGeometry x="148" y="468" width="36" height="22" as="geometry" />
        </mxCell>
        <mxCell id="WMnvuN_LtXJiwmp-fKAC-16" value="&lt;font color=&quot;#ffffff&quot; style=&quot;font-size: 24px&quot;&gt;64&lt;/font&gt;" style="text;html=1;align=center;verticalAlign=middle;resizable=0;points=[];autosize=1;" parent="1" vertex="1">
          <mxGeometry x="199" y="295" width="36" height="22" as="geometry" />
        </mxCell>
        <mxCell id="WMnvuN_LtXJiwmp-fKAC-17" value="&lt;font color=&quot;#ffffff&quot; style=&quot;font-size: 24px&quot;&gt;1&lt;/font&gt;" style="text;html=1;align=center;verticalAlign=middle;resizable=0;points=[];autosize=1;" parent="1" vertex="1">
          <mxGeometry x="175" y="180" width="24" height="22" as="geometry" />
        </mxCell>
        <mxCell id="WMnvuN_LtXJiwmp-fKAC-18" value="&lt;font color=&quot;#ffffff&quot; style=&quot;font-size: 24px&quot;&gt;32&lt;/font&gt;" style="text;html=1;align=center;verticalAlign=middle;resizable=0;points=[];autosize=1;" parent="1" vertex="1">
          <mxGeometry x="341" y="443" width="36" height="22" as="geometry" />
        </mxCell>
        <mxCell id="WMnvuN_LtXJiwmp-fKAC-19" value="&lt;font color=&quot;#ffffff&quot; style=&quot;font-size: 24px&quot;&gt;32&lt;/font&gt;" style="text;html=1;align=center;verticalAlign=middle;resizable=0;points=[];autosize=1;" parent="1" vertex="1">
          <mxGeometry x="405" y="310" width="36" height="22" as="geometry" />
        </mxCell>
        <mxCell id="WMnvuN_LtXJiwmp-fKAC-20" value="&lt;font color=&quot;#ffffff&quot; style=&quot;font-size: 24px&quot;&gt;64&lt;/font&gt;" style="text;html=1;align=center;verticalAlign=middle;resizable=0;points=[];autosize=1;" parent="1" vertex="1">
          <mxGeometry x="355" y="215" width="36" height="22" as="geometry" />
        </mxCell>
        <mxCell id="WMnvuN_LtXJiwmp-fKAC-21" value="&lt;font color=&quot;#ffffff&quot; style=&quot;font-size: 24px&quot;&gt;16&lt;/font&gt;" style="text;html=1;align=center;verticalAlign=middle;resizable=0;points=[];autosize=1;" parent="1" vertex="1">
          <mxGeometry x="549" y="421" width="36" height="22" as="geometry" />
        </mxCell>
        <mxCell id="WMnvuN_LtXJiwmp-fKAC-22" value="&lt;span style=&quot;color: rgb(255 , 255 , 255) ; font-size: 24px&quot;&gt;16&lt;/span&gt;" style="text;html=1;align=center;verticalAlign=middle;resizable=0;points=[];autosize=1;" parent="1" vertex="1">
          <mxGeometry x="587" y="325.44" width="36" height="22" as="geometry" />
        </mxCell>
        <mxCell id="WMnvuN_LtXJiwmp-fKAC-23" value="&lt;span style=&quot;color: rgb(255 , 255 , 255) ; font-size: 24px&quot;&gt;128&lt;/span&gt;" style="text;html=1;align=center;verticalAlign=middle;resizable=0;points=[];autosize=1;" parent="1" vertex="1">
          <mxGeometry x="511" y="247" width="50" height="22" as="geometry" />
        </mxCell>
        <mxCell id="WMnvuN_LtXJiwmp-fKAC-24" value="&lt;span style=&quot;color: rgb(255 , 255 , 255) ; font-size: 24px&quot;&gt;8&lt;/span&gt;" style="text;html=1;align=center;verticalAlign=middle;resizable=0;points=[];autosize=1;" parent="1" vertex="1">
          <mxGeometry x="769" y="414" width="24" height="22" as="geometry" />
        </mxCell>
        <mxCell id="WMnvuN_LtXJiwmp-fKAC-25" value="&lt;span style=&quot;color: rgb(255 , 255 , 255) ; font-size: 24px&quot;&gt;8&lt;/span&gt;" style="text;html=1;align=center;verticalAlign=middle;resizable=0;points=[];autosize=1;" parent="1" vertex="1">
          <mxGeometry x="804" y="336.75" width="24" height="22" as="geometry" />
        </mxCell>
        <mxCell id="WMnvuN_LtXJiwmp-fKAC-26" value="&lt;span style=&quot;color: rgb(255 , 255 , 255) ; font-size: 24px&quot;&gt;256&lt;/span&gt;" style="text;html=1;align=center;verticalAlign=middle;resizable=0;points=[];autosize=1;" parent="1" vertex="1">
          <mxGeometry x="702" y="280" width="50" height="22" as="geometry" />
        </mxCell>
        <mxCell id="WMnvuN_LtXJiwmp-fKAC-27" value="&lt;span style=&quot;color: rgb(255 , 255 , 255) ; font-size: 24px&quot;&gt;512&lt;/span&gt;" style="text;html=1;align=center;verticalAlign=middle;resizable=0;points=[];autosize=1;" parent="1" vertex="1">
          <mxGeometry x="902.5" y="308" width="50" height="22" as="geometry" />
        </mxCell>
        <mxCell id="WMnvuN_LtXJiwmp-fKAC-29" value="&lt;span style=&quot;color: rgb(255 , 255 , 255) ; font-size: 24px&quot;&gt;4&lt;/span&gt;" style="text;html=1;align=center;verticalAlign=middle;resizable=0;points=[];autosize=1;" parent="1" vertex="1">
          <mxGeometry x="995" y="392" width="24" height="22" as="geometry" />
        </mxCell>
        <mxCell id="WMnvuN_LtXJiwmp-fKAC-30" value="&lt;span style=&quot;color: rgb(255 , 255 , 255) ; font-size: 24px&quot;&gt;4&lt;/span&gt;" style="text;html=1;align=center;verticalAlign=middle;resizable=0;points=[];autosize=1;" parent="1" vertex="1">
          <mxGeometry x="1009" y="351" width="24" height="22" as="geometry" />
        </mxCell>
        <mxCell id="WMnvuN_LtXJiwmp-fKAC-32" value="&lt;span style=&quot;color: rgb(255 , 255 , 255) ; font-size: 24px&quot;&gt;1&lt;/span&gt;" style="text;html=1;align=center;verticalAlign=middle;resizable=0;points=[];autosize=1;" parent="1" vertex="1">
          <mxGeometry x="1077" y="324.44" width="24" height="22" as="geometry" />
        </mxCell>
        <mxCell id="WMnvuN_LtXJiwmp-fKAC-33" value="&lt;span style=&quot;color: rgb(255 , 255 , 255) ; font-size: 24px&quot;&gt;1&lt;/span&gt;" style="text;html=1;align=center;verticalAlign=middle;resizable=0;points=[];autosize=1;" parent="1" vertex="1">
          <mxGeometry x="1128" y="360.5" width="24" height="22" as="geometry" />
        </mxCell>
        <mxCell id="WMnvuN_LtXJiwmp-fKAC-41" style="edgeStyle=orthogonalEdgeStyle;rounded=0;orthogonalLoop=1;jettySize=auto;html=1;exitX=0;exitY=0;exitDx=10;exitDy=47;exitPerimeter=0;fontColor=#FFFFFF;" parent="1" source="WMnvuN_LtXJiwmp-fKAC-34" edge="1">
          <mxGeometry relative="1" as="geometry">
            <mxPoint x="325.42862374441984" y="409.7143990652903" as="targetPoint" />
          </mxGeometry>
        </mxCell>
        <mxCell id="WMnvuN_LtXJiwmp-fKAC-34" value="" style="shape=cube;whiteSpace=wrap;html=1;boundedLbl=1;backgroundOutline=1;darkOpacity=0.05;darkOpacity2=0.1;comic=0;fillColor=#008a00;flipH=1;opacity=50;fontColor=#ffffff;strokeColor=#FFFFFF;" parent="1" vertex="1">
          <mxGeometry x="309" y="357" width="39" height="50" as="geometry" />
        </mxCell>
        <mxCell id="WMnvuN_LtXJiwmp-fKAC-37" value="4x4 Stride 2&lt;br&gt;" style="text;html=1;strokeColor=none;fillColor=none;align=center;verticalAlign=middle;whiteSpace=wrap;rounded=0;comic=0;fontColor=#FFFFFF;" parent="1" vertex="1">
          <mxGeometry x="279" y="410" width="79" height="20" as="geometry" />
        </mxCell>
        <mxCell id="WMnvuN_LtXJiwmp-fKAC-46" style="edgeStyle=orthogonalEdgeStyle;rounded=0;orthogonalLoop=1;jettySize=auto;html=1;exitX=0;exitY=0;exitDx=10;exitDy=47;exitPerimeter=0;fontColor=#FFFFFF;" parent="1" source="WMnvuN_LtXJiwmp-fKAC-47" edge="1">
          <mxGeometry relative="1" as="geometry">
            <mxPoint x="129.42862374441984" y="409.7143990652903" as="targetPoint" />
          </mxGeometry>
        </mxCell>
        <mxCell id="WMnvuN_LtXJiwmp-fKAC-47" value="" style="shape=cube;whiteSpace=wrap;html=1;boundedLbl=1;backgroundOutline=1;darkOpacity=0.05;darkOpacity2=0.1;comic=0;fillColor=#008a00;flipH=1;opacity=50;fontColor=#ffffff;strokeColor=#FFFFFF;" parent="1" vertex="1">
          <mxGeometry x="115" y="355" width="28" height="52" as="geometry" />
        </mxCell>
        <mxCell id="WMnvuN_LtXJiwmp-fKAC-48" value="4x4 Stride 2&lt;br&gt;" style="text;html=1;strokeColor=none;fillColor=none;align=center;verticalAlign=middle;whiteSpace=wrap;rounded=0;comic=0;fontColor=#FFFFFF;" parent="1" vertex="1">
          <mxGeometry x="94.5" y="416" width="79" height="20" as="geometry" />
        </mxCell>
        <mxCell id="WMnvuN_LtXJiwmp-fKAC-49" style="edgeStyle=orthogonalEdgeStyle;rounded=0;orthogonalLoop=1;jettySize=auto;html=1;exitX=0;exitY=0;exitDx=10;exitDy=47;exitPerimeter=0;fontColor=#FFFFFF;" parent="1" source="WMnvuN_LtXJiwmp-fKAC-50" edge="1">
          <mxGeometry relative="1" as="geometry">
            <mxPoint x="504.42862374441984" y="409.7143990652903" as="targetPoint" />
          </mxGeometry>
        </mxCell>
        <mxCell id="WMnvuN_LtXJiwmp-fKAC-50" value="" style="shape=cube;whiteSpace=wrap;html=1;boundedLbl=1;backgroundOutline=1;darkOpacity=0.05;darkOpacity2=0.1;comic=0;fillColor=#008a00;flipH=1;opacity=50;fontColor=#ffffff;strokeColor=#FFFFFF;" parent="1" vertex="1">
          <mxGeometry x="447" y="359" width="58" height="48" as="geometry" />
        </mxCell>
        <mxCell id="WMnvuN_LtXJiwmp-fKAC-51" value="4x4 Stride 2&lt;br&gt;" style="text;html=1;strokeColor=none;fillColor=none;align=center;verticalAlign=middle;whiteSpace=wrap;rounded=0;comic=0;fontColor=#FFFFFF;" parent="1" vertex="1">
          <mxGeometry x="441" y="408" width="79" height="20" as="geometry" />
        </mxCell>
        <mxCell id="WMnvuN_LtXJiwmp-fKAC-55" value="" style="shape=cube;whiteSpace=wrap;html=1;boundedLbl=1;backgroundOutline=1;darkOpacity=0.05;darkOpacity2=0.1;comic=0;fillColor=#008a00;flipH=1;opacity=50;fontColor=#ffffff;strokeColor=#FFFFFF;" parent="1" vertex="1">
          <mxGeometry x="658" y="362" width="82" height="48" as="geometry" />
        </mxCell>
        <mxCell id="WMnvuN_LtXJiwmp-fKAC-56" value="4x4 Stride 2&lt;br&gt;" style="text;html=1;strokeColor=none;fillColor=none;align=center;verticalAlign=middle;whiteSpace=wrap;rounded=0;comic=0;fontColor=#FFFFFF;" parent="1" vertex="1">
          <mxGeometry x="654" y="409" width="79" height="20" as="geometry" />
        </mxCell>
        <mxCell id="WMnvuN_LtXJiwmp-fKAC-59" value="" style="shape=cube;whiteSpace=wrap;html=1;boundedLbl=1;backgroundOutline=1;darkOpacity=0.05;darkOpacity2=0.1;comic=0;fillColor=#008a00;flipH=1;opacity=50;fontColor=#ffffff;strokeColor=#FFFFFF;" parent="1" vertex="1">
          <mxGeometry x="872" y="346.44" width="104" height="42.13" as="geometry" />
        </mxCell>
        <mxCell id="WMnvuN_LtXJiwmp-fKAC-60" value="4x4 Stride 1" style="text;html=1;strokeColor=none;fillColor=none;align=center;verticalAlign=middle;whiteSpace=wrap;rounded=0;comic=0;fontColor=#FFFFFF;" parent="1" vertex="1">
          <mxGeometry x="880" y="405" width="79" height="20" as="geometry" />
        </mxCell>
        <mxCell id="WMnvuN_LtXJiwmp-fKAC-69" value="" style="shape=cube;whiteSpace=wrap;html=1;boundedLbl=1;backgroundOutline=1;darkOpacity=0.05;darkOpacity2=0.1;size=67;flipH=1;fillColor=#0050ef;fontColor=#ffffff;opacity=50;strokeColor=#FFFFFF;" parent="1" vertex="1">
          <mxGeometry x="493" y="280" width="80" height="173" as="geometry" />
        </mxCell>
        <mxCell id="WMnvuN_LtXJiwmp-fKAC-70" value="" style="shape=cube;whiteSpace=wrap;html=1;boundedLbl=1;backgroundOutline=1;darkOpacity=0.05;darkOpacity2=0.1;size=67;flipH=1;fillColor=#a20025;fontColor=#ffffff;opacity=50;strokeColor=#FFFFFF;" parent="1" vertex="1">
          <mxGeometry x="505" y="280.5" width="80" height="173" as="geometry" />
        </mxCell>
        <mxCell id="WMnvuN_LtXJiwmp-fKAC-71" value="" style="shape=cube;whiteSpace=wrap;html=1;boundedLbl=1;backgroundOutline=1;darkOpacity=0.05;darkOpacity2=0.1;size=40;flipH=1;fillColor=#0050ef;fontColor=#ffffff;opacity=50;strokeColor=#FFFFFF;" parent="1" vertex="1">
          <mxGeometry x="728" y="310" width="53" height="120" as="geometry" />
        </mxCell>
        <mxCell id="WMnvuN_LtXJiwmp-fKAC-73" value="" style="shape=cube;whiteSpace=wrap;html=1;boundedLbl=1;backgroundOutline=1;darkOpacity=0.05;darkOpacity2=0.1;size=14;flipH=1;fillColor=#0050ef;fontColor=#ffffff;opacity=50;strokeColor=#FFFFFF;" parent="1" vertex="1">
          <mxGeometry x="974" y="336.75" width="25" height="62.5" as="geometry" />
        </mxCell>
        <mxCell id="WMnvuN_LtXJiwmp-fKAC-75" value="" style="rounded=0;whiteSpace=wrap;html=1;comic=0;fillColor=none;fontColor=#FFFFFF;strokeColor=#FFFFFF;" parent="1" vertex="1">
          <mxGeometry x="1070" y="354" width="54" height="35" as="geometry" />
        </mxCell>
        <mxCell id="WMnvuN_LtXJiwmp-fKAC-76" value="" style="rounded=0;whiteSpace=wrap;html=1;comic=0;fillColor=#e3c800;fontColor=#ffffff;strokeColor=#FFFFFF;opacity=50;" parent="1" vertex="1">
          <mxGeometry x="1110" y="354" width="14" height="35" as="geometry" />
        </mxCell>
        <mxCell id="WMnvuN_LtXJiwmp-fKAC-77" value="" style="shape=cube;whiteSpace=wrap;html=1;boundedLbl=1;backgroundOutline=1;darkOpacity=0.05;darkOpacity2=0.1;size=40;flipH=1;fillColor=#a20025;fontColor=#ffffff;opacity=50;strokeColor=#FFFFFF;" parent="1" vertex="1">
          <mxGeometry x="742" y="310" width="53" height="120" as="geometry" />
        </mxCell>
        <mxCell id="WMnvuN_LtXJiwmp-fKAC-78" value="" style="shape=cube;whiteSpace=wrap;html=1;boundedLbl=1;backgroundOutline=1;darkOpacity=0.05;darkOpacity2=0.1;size=14;flipH=1;fillColor=#a20025;fontColor=#ffffff;opacity=50;strokeColor=#FFFFFF;" parent="1" vertex="1">
          <mxGeometry x="984" y="337" width="25" height="62.5" as="geometry" />
        </mxCell>
        <mxCell id="WMnvuN_LtXJiwmp-fKAC-79" value="CONV 1" style="text;html=1;align=center;verticalAlign=middle;resizable=0;points=[];autosize=1;fontColor=#FFFFFF;fontSize=30;" parent="1" vertex="1">
          <mxGeometry x="143" y="502" width="122" height="40" as="geometry" />
        </mxCell>
        <mxCell id="WMnvuN_LtXJiwmp-fKAC-80" value="CONV 2" style="text;html=1;align=center;verticalAlign=middle;resizable=0;points=[];autosize=1;fontColor=#FFFFFF;fontSize=30;" parent="1" vertex="1">
          <mxGeometry x="329" y="483" width="122" height="40" as="geometry" />
        </mxCell>
        <mxCell id="WMnvuN_LtXJiwmp-fKAC-81" value="CONV 3" style="text;html=1;align=center;verticalAlign=middle;resizable=0;points=[];autosize=1;fontColor=#FFFFFF;fontSize=30;" parent="1" vertex="1">
          <mxGeometry x="544" y="459" width="122" height="40" as="geometry" />
        </mxCell>
        <mxCell id="WMnvuN_LtXJiwmp-fKAC-82" value="CONV 4" style="text;html=1;align=center;verticalAlign=middle;resizable=0;points=[];autosize=1;fontColor=#FFFFFF;fontSize=30;" parent="1" vertex="1">
          <mxGeometry x="758" y="443" width="122" height="40" as="geometry" />
        </mxCell>
        <mxCell id="WMnvuN_LtXJiwmp-fKAC-83" value="CONV 5&lt;br&gt;" style="text;html=1;align=center;verticalAlign=middle;resizable=0;points=[];autosize=1;fontColor=#FFFFFF;fontSize=30;" parent="1" vertex="1">
          <mxGeometry x="979" y="422" width="122" height="40" as="geometry" />
        </mxCell>
        <mxCell id="WMnvuN_LtXJiwmp-fKAC-84" value="&lt;font style=&quot;font-size: 60px&quot;&gt;D&lt;/font&gt;" style="text;html=1;align=center;verticalAlign=middle;resizable=0;points=[];autosize=1;fontSize=30;fontColor=#FFFFFF;" parent="1" vertex="1">
          <mxGeometry x="54" y="58" width="53" height="50" as="geometry" />
        </mxCell>
        <mxCell id="WMnvuN_LtXJiwmp-fKAC-85" value="X" style="text;html=1;align=center;verticalAlign=middle;resizable=0;points=[];autosize=1;fontColor=#FFFFFF;fontSize=30;" parent="1" vertex="1">
          <mxGeometry x="32" y="385" width="30" height="40" as="geometry" />
        </mxCell>
        <mxCell id="WMnvuN_LtXJiwmp-fKAC-87" value="" style="shape=cube;whiteSpace=wrap;html=1;boundedLbl=1;backgroundOutline=1;darkOpacity=0.05;darkOpacity2=0.1;size=36;flipH=1;fillColor=#a20025;opacity=50;fontColor=#ffffff;strokeColor=#FFFFFF;" parent="1" vertex="1">
          <mxGeometry x="285.25" y="631" width="57" height="98" as="geometry" />
        </mxCell>
        <mxCell id="WMnvuN_LtXJiwmp-fKAC-90" value="&lt;span style=&quot;font-family: &amp;#34;source code pro&amp;#34; , &amp;#34;dejavu sans mono&amp;#34; , &amp;#34;ubuntu mono&amp;#34; , &amp;#34;anonymous pro&amp;#34; , &amp;#34;droid sans mono&amp;#34; , &amp;#34;menlo&amp;#34; , &amp;#34;monaco&amp;#34; , &amp;#34;consolas&amp;#34; , &amp;#34;inconsolata&amp;#34; , &amp;#34;courier&amp;#34; , monospace , &amp;#34;pingfang sc&amp;#34; , &amp;#34;microsoft yahei&amp;#34; , sans-serif ; font-size: 24px ; background-color: rgb(0 , 0 , 0)&quot;&gt;LeakyReLU&lt;/span&gt;" style="text;html=1;align=center;verticalAlign=middle;resizable=0;points=[];autosize=1;fontSize=30;fontColor=#FFFFFF;shadow=0;" parent="1" vertex="1">
          <mxGeometry x="351.25" y="665" width="140" height="42" as="geometry" />
        </mxCell>
        <mxCell id="WMnvuN_LtXJiwmp-fKAC-91" value="" style="shape=cube;whiteSpace=wrap;html=1;boundedLbl=1;backgroundOutline=1;darkOpacity=0.05;darkOpacity2=0.1;size=36;flipH=1;fillColor=#0050ef;opacity=50;fontColor=#ffffff;strokeColor=#FFFFFF;" parent="1" vertex="1">
          <mxGeometry x="496.75" y="631" width="57" height="98" as="geometry" />
        </mxCell>
        <mxCell id="WMnvuN_LtXJiwmp-fKAC-92" value="&lt;span style=&quot;color: rgb(248 , 248 , 242) ; font-family: &amp;#34;source code pro&amp;#34; , &amp;#34;dejavu sans mono&amp;#34; , &amp;#34;ubuntu mono&amp;#34; , &amp;#34;anonymous pro&amp;#34; , &amp;#34;droid sans mono&amp;#34; , &amp;#34;menlo&amp;#34; , &amp;#34;monaco&amp;#34; , &amp;#34;consolas&amp;#34; , &amp;#34;inconsolata&amp;#34; , &amp;#34;courier&amp;#34; , monospace , &amp;#34;pingfang sc&amp;#34; , &amp;#34;microsoft yahei&amp;#34; , sans-serif ; background-color: rgb(0 , 0 , 0)&quot;&gt;&lt;font style=&quot;font-size: 24px&quot;&gt;BatchNorm2d&lt;/font&gt;&lt;/span&gt;" style="text;html=1;align=center;verticalAlign=middle;resizable=0;points=[];autosize=1;fontSize=30;fontColor=#FFFFFF;fillColor=#000000;" parent="1" vertex="1">
          <mxGeometry x="561.75" y="670" width="169" height="42" as="geometry" />
        </mxCell>
        <mxCell id="WMnvuN_LtXJiwmp-fKAC-93" value="" style="shape=cube;whiteSpace=wrap;html=1;boundedLbl=1;backgroundOutline=1;darkOpacity=0.05;darkOpacity2=0.1;size=36;flipH=1;fillColor=#e3c800;opacity=50;fontColor=#ffffff;strokeColor=#FFFFFF;" parent="1" vertex="1">
          <mxGeometry x="740.75" y="631" width="57" height="98" as="geometry" />
        </mxCell>
        <mxCell id="WMnvuN_LtXJiwmp-fKAC-94" value="&lt;span style=&quot;color: rgb(248 , 248 , 242) ; font-family: &amp;#34;source code pro&amp;#34; , &amp;#34;dejavu sans mono&amp;#34; , &amp;#34;ubuntu mono&amp;#34; , &amp;#34;anonymous pro&amp;#34; , &amp;#34;droid sans mono&amp;#34; , &amp;#34;menlo&amp;#34; , &amp;#34;monaco&amp;#34; , &amp;#34;consolas&amp;#34; , &amp;#34;inconsolata&amp;#34; , &amp;#34;courier&amp;#34; , monospace , &amp;#34;pingfang sc&amp;#34; , &amp;#34;microsoft yahei&amp;#34; , sans-serif&quot;&gt;&lt;font style=&quot;font-size: 24px&quot;&gt;&lt;span style=&quot;background-color: rgb(0 , 0 , 0)&quot;&gt;Sigmoid&lt;/span&gt;&lt;br&gt;&lt;/font&gt;&lt;/span&gt;" style="text;html=1;align=center;verticalAlign=middle;resizable=0;points=[];autosize=1;fontSize=30;fontColor=#FFFFFF;" parent="1" vertex="1">
          <mxGeometry x="813.75" y="670" width="111" height="42" as="geometry" />
        </mxCell>
        <mxCell id="CmqVxkuEl3J2Q9xtDwk1-1" value="&lt;span style=&quot;color: rgb(255 , 255 , 255) ; font-size: 24px&quot;&gt;1&lt;/span&gt;" style="text;html=1;align=center;verticalAlign=middle;resizable=0;points=[];autosize=1;" vertex="1" parent="1">
          <mxGeometry x="1077" y="396" width="24" height="22" as="geometry" />
        </mxCell>
      </root>
    </mxGraphModel>
  </diagram>
</mxfile>
